# xmcd
#
# Track frame offsets:
# 150
# 13810
# 28757
# 46617
# 61072
# 77132
# 91135
# 107092
# 123127
# 138265
# 152207
# 167025
#
# Disc length: 2451 seconds
#
#
# Revision: 0
# Processed by: cddbd v1.5.1PL0 Copyright (c) Steve Scherf et al.
# Submitted via: FreeRIP 2.35 
#
DISCID=8b09910c
DTITLE=David South - Love Or Illusion
DYEAR=1991
DGENRE=Vocal/Country
TTITLE0=Sweet Dreams Then Heartache
TTITLE1=I Would Love To LOve You Again
TTITLE2=Wishing That I Wasn't Missing You
TTITLE3=Broken Heart Corral
TTITLE4=Love Will Find The Answers
TTITLE5=Girl On The Hill
TTITLE6=Moonwriter
TTITLE7=Having You Beside Me
TTITLE8=I Knew That I Was Falling In Love
TTITLE9=Hellfire Or Heaven
TTITLE10=Pure Is The Love
TTITLE11=Your Sweet Way Of Saying Goodbye
EXTD=
EXTT0=
EXTT1=
EXTT2=
EXTT3=
EXTT4=
EXTT5=
EXTT6=
EXTT7=
EXTT8=
EXTT9=
EXTT10=
EXTT11=
PLAYORDER=
